<svg xmlns="http://www.w3.org/2000/svg" xmlns:xlink="http://www.w3.org/1999/xlink" width="500" zoomAndPan="magnify" viewBox="0 0 375 374.999991" height="500" preserveAspectRatio="xMidYMid meet" version="1.0"><defs><clipPath id="id1"><path d="M 9.375 0 L 365 0 L 365 375 L 9.375 375 Z M 9.375 0 " clip-rule="nonzero"/></clipPath></defs><g clip-path="url(#id1)"><path fill="#ffffff" d="M 137.574219 351.605469 C 129.765625 351.605469 123.410156 345.253906 123.410156 337.441406 C 123.410156 329.636719 129.765625 323.285156 137.574219 323.285156 C 145.382812 323.285156 151.738281 329.636719 151.738281 337.441406 C 151.738281 345.253906 145.382812 351.605469 137.574219 351.605469 Z M 276.125 351.605469 C 268.316406 351.605469 261.960938 345.253906 261.960938 337.441406 C 261.960938 329.636719 268.316406 323.285156 276.125 323.285156 C 283.933594 323.285156 290.289062 329.636719 290.289062 337.441406 C 290.289062 345.253906 283.933594 351.605469 276.125 351.605469 Z M 351.195312 75.660156 L 95.484375 75.660156 L 83.835938 9.664062 C 82.847656 4.074219 77.996094 0 72.316406 0 L 21.128906 0 C 14.667969 0 9.433594 5.238281 9.433594 11.695312 C 9.433594 18.15625 14.667969 23.394531 21.128906 23.394531 L 62.503906 23.394531 L 73.742188 87.054688 C 73.863281 87.742188 74.207031 88.3125 74.433594 88.941406 C 74.460938 89.628906 74.460938 90.308594 74.585938 91.019531 L 100.578125 238.296875 C 100.636719 238.625 100.769531 238.929688 100.84375 239.25 C 89.996094 247.519531 83.246094 260.511719 83.246094 274.542969 C 83.246094 292.027344 93.441406 307.140625 108.175781 314.359375 C 103.144531 320.75 100.015625 328.699219 100.015625 337.441406 C 100.015625 358.152344 116.867188 375 137.574219 375 C 158.285156 375 175.132812 358.152344 175.132812 337.441406 C 175.132812 330.667969 173.1875 324.394531 170.035156 318.898438 L 243.664062 318.898438 C 240.511719 324.394531 238.566406 330.667969 238.566406 337.441406 C 238.566406 358.152344 255.417969 375 276.125 375 C 296.835938 375 313.683594 358.152344 313.683594 337.441406 C 313.683594 330.667969 311.738281 324.394531 308.582031 318.898438 L 317.664062 318.898438 C 324.128906 318.898438 329.363281 313.660156 329.363281 307.203125 C 329.363281 300.746094 324.128906 295.503906 317.664062 295.503906 L 127.597656 295.503906 C 116.039062 295.503906 106.640625 286.101562 106.640625 274.542969 C 106.640625 265.789062 112.195312 257.878906 120.46875 254.839844 C 122.472656 254.101562 124.589844 253.742188 126.753906 253.65625 L 319.785156 253.65625 C 328.363281 253.65625 336.601562 246.746094 338.09375 238.296875 L 364.082031 91.019531 C 365.574219 82.574219 359.773438 75.660156 351.195312 75.660156 " fill-opacity="1" fill-rule="nonzero"/></g></svg>